<?xml version="1.0" encoding="utf-8"?>
<!-- Generator: Adobe Illustrator 25.3.1, SVG Export Plug-In . SVG Version: 6.00 Build 0)  -->
<svg version="1.1" id="_x31_0" xmlns="http://www.w3.org/2000/svg" xmlns:xlink="http://www.w3.org/1999/xlink" x="0px" y="0px"
	 viewBox="0 0 512 512" style="enable-background:new 0 0 512 512;" xml:space="preserve">
<g>
	<path d="M512,256C512,114.6,397.4,0,256,0S0,114.6,0,256s114.6,256,256,256S512,397.4,512,256z M64,256c0-105.9,86.1-192,192-192
		c105.9,0,192,86.1,192,192s-86.1,192-192,192S64,361.9,64,256z"/>
	<path d="M263.2,389.9l94.2-124.3c4.5-6,0.3-14.5-7.2-14.5l-40.2,0c-5,0-9-4.1-9-9l0-114.4c0-5-4.1-9-9-9l-71.8,0c-5,0-9,4-9,9
		l0,114.5c0,5-4,9-9,9l-40.2,0c-7.5,0-11.7,8.5-7.2,14.5l94.2,124.3C252.4,394.7,259.6,394.7,263.2,389.9z"/>
</g>
</svg>
