<?xml version="1.0" encoding="utf-8"?>
<!-- Generator: Adobe Illustrator 25.3.1, SVG Export Plug-In . SVG Version: 6.00 Build 0)  -->
<svg version="1.1" id="_x31_0" xmlns="http://www.w3.org/2000/svg" xmlns:xlink="http://www.w3.org/1999/xlink" x="0px" y="0px"
	 viewBox="0 0 512 512" style="enable-background:new 0 0 512 512;" xml:space="preserve">
<g>
	<path d="M426,18.9H209c-47.4,0-86,38.6-86,86v146.3c0,47.4,38.6,86,86,86h109.7l96.4,88.6c2.7,2.5,6.2,3.8,9.8,3.8
		c1.9,0,3.9-0.4,5.7-1.2c5.2-2.3,8.7-7.4,8.7-13.1l0.9-79.3c40.6-6.8,71.7-42.2,71.7-84.8V104.8C512,57.4,473.4,18.9,426,18.9z
		 M222.8,245.5c0-6,4.9-10.9,10.9-10.9h91.1c6,0,10.9,4.9,10.9,10.9c0,6-4.9,10.9-10.9,10.9h-91.1
		C227.6,256.4,222.8,251.5,222.8,245.5z M233.7,177.2h167.7c6,0,10.9,4.9,10.9,10.9c0,6-4.9,10.9-10.9,10.9H233.7
		c-6,0-10.9-4.9-10.9-10.9C222.8,182.1,227.6,177.2,233.7,177.2z M401.4,141.8H233.7c-6,0-10.9-4.9-10.9-10.9
		c0-6,4.9-10.9,10.9-10.9h167.7c6,0,10.9,4.9,10.9,10.9C412.3,136.9,407.4,141.8,401.4,141.8z"/>
	<path d="M309.3,361.4h-4.4c-10.1,7.5-22.7,11.9-36.2,11.9h-98.3l-38.5,44.9l-29,33.6l-0.9-78.5c-33.6,0-60.9-27.3-60.9-61V187.7
		c0-32.6,25.5-59.2,57.7-60.9v-21.9c0-6,0.5-11.9,1.5-17.7c0.1-0.4,0.1-0.9,0.2-1.3c0,0,0,0,0,0c0-0.1,0-0.1,0-0.2
		C44.9,86.5,0,131.9,0,187.7v124.7c0,41.8,25.2,77.8,61.3,93.5l0.5,46.6c0.2,16.2,9.8,30.8,24.7,37.2c5.2,2.2,10.8,3.4,16.3,3.4
		c10.1,0,1.8-3.8,9.6-10.9l73.9-67.9h82.3c25.5,0,48.9-9.5,66.8-25.1c0.7-0.6,1.4-1.1,2.1-1.7l0,0c0,0,0.1-0.1,0.1-0.1L309.3,361.4z
		"/>
</g>
</svg>
