<?xml version="1.0" encoding="utf-8"?>
<!-- Generator: Adobe Illustrator 25.3.1, SVG Export Plug-In . SVG Version: 6.00 Build 0)  -->
<svg version="1.1" id="_x31_0" xmlns="http://www.w3.org/2000/svg" xmlns:xlink="http://www.w3.org/1999/xlink" x="0px" y="0px"
	 viewBox="0 0 512 512" style="enable-background:new 0 0 512 512;" xml:space="preserve">
<g>
	<path d="M458.3,104.5L358.6,4.9c-3.1-3.1-7.3-4.9-11.8-4.9H65.5c-9.2,0-16.7,7.5-16.7,16.7v478.7c0,9.2,7.5,16.7,16.7,16.7h381
		c9.2,0,16.7-7.5,16.7-16.7v-379C463.2,111.9,461.4,107.7,458.3,104.5z M357.5,122.4h51.2c4.9,0,8.8,3.9,8.8,8.8v326.4
		c0,4.9-3.9,8.8-8.8,8.8H103.3c-4.8,0-8.8-3.9-8.8-8.8v-403c0-4.8,3.9-8.8,8.8-8.8H332c4.9,0,8.8,3.9,8.8,8.8v51.2
		C340.8,114.9,348.3,122.4,357.5,122.4z"/>
	<path d="M169.6,183.8h108.1c7.7,0,13.9-6.3,13.9-13.9c0-7.7-6.3-13.9-13.9-13.9H169.6c-7.7,0-13.9,6.3-13.9,13.9
		C155.7,177.6,161.9,183.8,169.6,183.8z"/>
	<path d="M155.7,256c0,7.7,6.3,13.9,13.9,13.9h172.8c7.7,0,13.9-6.3,13.9-13.9c0-7.7-6.3-13.9-13.9-13.9H169.6
		C161.9,242.1,155.7,248.3,155.7,256z"/>
	<path d="M342.4,324H169.6c-7.7,0-13.9,6.3-13.9,13.9c0,7.7,6.3,13.9,13.9,13.9h172.8c7.7,0,13.9-6.3,13.9-13.9
		C356.3,330.2,350.1,324,342.4,324z"/>
</g>
</svg>
