<?xml version="1.0" encoding="utf-8"?>
<!-- Generator: Adobe Illustrator 25.3.1, SVG Export Plug-In . SVG Version: 6.00 Build 0)  -->
<svg version="1.1" id="_x31_0" xmlns="http://www.w3.org/2000/svg" xmlns:xlink="http://www.w3.org/1999/xlink" x="0px" y="0px"
	 viewBox="0 0 512 512" style="enable-background:new 0 0 512 512;" xml:space="preserve">
<g>
	<path d="M202.4,343c-6-4.5-13.3-11-20.6-18.3c-7.3-7.3-13.8-14.6-18.3-20.6c-1-1.3-2.2-3-3.4-4.9c-0.1-0.2-0.3-0.4-0.4-0.7l0,0
		c0,0,0,0,0-0.1c0,0,0,0,0,0c0,0,0-0.1-0.1-0.1c-30.2,29.7-63,48.4-88,59.4c-2.4,22.1-7.7,43.8-13.3,61.9c-0.2,0.6-0.4,1.2-0.5,1.8
		c-0.1,0.2-0.2,0.5-0.2,0.7c-3.5,10.7-7,19.9-9.9,26.7c-2.1,0-4.2,0.7-5.9,2.4c-2.9,2.9-3.2,7-1.1,9.9c0.1,0.2,0.2,0.4,0.3,0.6
		c0,0,0,0.1,0.1,0.1l0,0c0,0,0,0,0,0.1l0,0c0,0,0,0.1,0.1,0.1l11.3-11.3c-0.1-0.1-0.2-0.2-0.3-0.3l54.1-56.3c-3-6.1-1.6-14.1,4-19.7
		c6.8-6.8,17.3-7.4,23.4-1.3c6.1,6.1,5.5,16.5-1.3,23.3c-5.6,5.6-13.6,7-19.7,4l-33.3,32l-31.2,29.7l0.2,0l-0.1,0.1
		c0.1,0,0.2-0.1,0.4-0.2l0.2,0l-3.6,3.6l0,0v0l-0.1,0.1c2.8,2.8,7.6,2.5,10.7-0.6c2-2,2.8-4.6,2.5-7c19.8-7.6,54.9-19.3,90.8-23.1
		c9.8-22.4,25.9-51,50.5-78.4c2.7-3,5.5-6,8.4-9c0.1-0.1,0.3-0.3,0.4-0.4c0,0,0,0,0,0c0,0,0,0,0,0c0,0,0,0,0,0c0,0,0.1-0.1,0.1-0.1
		C206,345.7,203.9,344.1,202.4,343z"/>
	<path d="M462.2,45.4l-0.7-0.7c-7.1-6.9-16.5-10.6-27.3-10.6c-5.9,0-12.4,1.1-19.2,3.3c-17.7,5.7-39,19.1-63.5,39.9
		c-16.9,14.4-33.2,30.6-48.3,48.1c-2.9,3.3-126.4,147.8-131.1,153.2c-8.4,8.9,0.1,20.1,2.8,23.8c3.4,4.5,8.3,10,13.8,15.5
		c5.5,5.4,11,10.3,15.5,13.8c3,2.3,8.6,6.5,14.8,6.5c3.4,0,6.4-1.2,8.9-3.5c4.2-3.7,153.5-130.9,153.5-130.9
		c17.5-15.2,33.7-31.4,48.1-48.3c20.8-24.4,34.2-45.8,39.9-63.4C477.3,67.6,469.8,53.2,462.2,45.4z M258.3,273.7l-40.8,35.8
		c-2.5-2-6.1-5.2-10.8-9.8c-4.6-4.6-7.8-8.3-9.8-10.8l35.9-40.7l23.8,23.8L258.3,273.7z"/>
</g>
</svg>
