<?xml version="1.0" encoding="utf-8"?>
<!-- Generator: Adobe Illustrator 25.3.1, SVG Export Plug-In . SVG Version: 6.00 Build 0)  -->
<svg version="1.1" id="_x31_0" xmlns="http://www.w3.org/2000/svg" xmlns:xlink="http://www.w3.org/1999/xlink" x="0px" y="0px"
	 viewBox="0 0 512 512" style="enable-background:new 0 0 512 512;" xml:space="preserve">
<g>
	<path d="M363,223.2l-6.3,6.2l0,0l-0.1,0.1c0.8,0.7,1.6,1.4,2.4,2.1c8.1,8.1,13.2,18.7,14.6,30l114.4-114.4
		c-4.5-9.6-9.7-18.9-15.4-27.9c-0.7-1.1-1.3-2.3-2-3.4l0,0c0,0-0.1-0.1-0.1-0.1L363,223.2z"/>
	<path d="M293.3,169.3l-1.9-1.9l-1.7-1.9c0.1,0.1,0.1,0.3,0.2,0.4l-0.3-0.3c4.2,8.1,6.3,17.2,5.8,26.5c-0.4,6.7,2.1,13.1,6.9,17.9
		c4.8,4.8,11.1,7.2,17.9,6.9c9.3-0.5,18.4,1.6,26.5,5.8l-3.8-3.8l117.4-117.4c-7-9.2-14.6-18.1-23-26.5c-8.4-8.4-17.3-16-26.5-23
		l-117,117L293.3,169.3z"/>
	<path d="M250.4,138.3c0,0,0.1,0,0.1,0l-0.1,0.1c11.2,1.4,21.8,6.5,30,14.6c0.8,0.8,1.4,1.6,2.1,2.4l94.6-94.6l19-19c0,0,0,0,0,0
		l0.1-0.1C386,35,375.5,29.1,364.7,24.1l-70.4,70.4L250.4,138.3z"/>
	<path d="M282.5,229.5c-10.3-10.3-15.7-24.5-15-39c0.3-6.7-2.1-13.1-6.9-17.9c-4.8-4.8-11.1-7.2-17.9-6.9l-20.9,1.1l-4.5,4.5
		L174,310.5l27.6,27.6l139.1-43.4l4.5-4.5l1.1-20.9c0.4-6.7-2.1-13.1-6.9-17.9c-4.8-4.8-11.1-7.2-17.9-6.9
		C307,245.2,292.8,239.8,282.5,229.5z"/>
	<path d="M511.7,268.5c0.2-4.5,0.2-8.9,0.2-13.4c0-1.4,0.1-2.7,0-4.1c-0.1-3.4-0.3-6.8-0.5-10.2c-0.1-2.4-0.2-4.8-0.4-7.2
		c-0.2-2.2-0.5-4.4-0.8-6.6c-0.4-3.5-0.8-7.1-1.3-10.6c-0.1-0.5-0.2-1-0.3-1.5c-1.7-10.6-4-21.1-7.1-31.6l-0.1,0.1
		c0-0.1,0-0.1,0-0.2L359.2,325.4l-222,69.3c-1.5,0.5-3.1,0.7-4.6,0.7c-10.2,0-18.7-10.3-15.4-20.7l69.3-222l96.2-96.2l46.1-46
		c0,0-0.1,0-0.1,0l0.1-0.1C293-0.2,255.3-2.6,218.5,2.8c-0.2,0-0.5,0.1-0.7,0.1c-3.9,0.6-7.7,1.2-11.5,2c-0.7,0.1-1.3,0.3-2,0.4
		c-10.8,2.2-21.5,5.2-32.1,8.8c-1.5,0.5-2.9,1-4.4,1.6c-3,1.1-6,2.3-9,3.5c-1.1,0.5-2.2,1-3.4,1.5c-6.3,2.7-12.5,5.6-18.7,8.9
		c-0.5,0.2-0.9,0.5-1.4,0.7c-3.3,1.7-6.5,3.6-9.7,5.5c-0.7,0.4-1.4,0.9-2.1,1.3C106.3,47.4,89.9,60,75,74.9C-25,174.9-25,337,75,437
		c100,100,262.1,100,362.1,0c46.6-46.6,71.4-106.7,74.6-167.7C511.7,269,511.7,268.8,511.7,268.5z"/>
</g>
</svg>
